<?xml version="1.0" encoding="utf-8" standalone="no"?>
<!DOCTYPE svg PUBLIC "-//W3C//DTD SVG 1.1//EN"
  "http://www.w3.org/Graphics/SVG/1.1/DTD/svg11.dtd">
<svg xmlns:xlink="http://www.w3.org/1999/xlink" width="186.744pt" height="288.7545pt" viewBox="0 0 186.744 288.7545" xmlns="http://www.w3.org/2000/svg" version="1.1">
 <metadata>
  <rdf:RDF xmlns:dc="http://purl.org/dc/elements/1.1/" xmlns:cc="http://creativecommons.org/ns#" xmlns:rdf="http://www.w3.org/1999/02/22-rdf-syntax-ns#">
   <cc:Work>
    <dc:type rdf:resource="http://purl.org/dc/dcmitype/StillImage"/>
    <dc:date>2023-06-18T17:35:39.709584</dc:date>
    <dc:format>image/svg+xml</dc:format>
    <dc:creator>
     <cc:Agent>
      <dc:title>Matplotlib v3.6.3, https://matplotlib.org/</dc:title>
     </cc:Agent>
    </dc:creator>
   </cc:Work>
  </rdf:RDF>
 </metadata>
 <defs>
  <style type="text/css">*{stroke-linejoin: round; stroke-linecap: butt}</style>
 </defs>
 <g id="figure_1">
  <g id="patch_1">
   <path d="M 0 288.7545 
L 186.744 288.7545 
L 186.744 0 
L 0 0 
z
" style="fill: #ffffff"/>
  </g>
  <g id="axes_1">
   <g id="patch_2">
    <path d="M 7.2 281.5545 
L 176.544 281.5545 
L 176.544 15.4425 
L 7.2 15.4425 
z
" style="fill: #ffffff"/>
   </g>
   <g id="matplotlib.axis_1">
    <g id="xtick_1">
     <g id="line2d_1">
      <path d="M 31.392 281.5545 
L 31.392 15.4425 
" clip-path="url(#p01aee1bc17)" style="fill: none; stroke-dasharray: 3.7,1.6; stroke-dashoffset: 0; stroke: #b0b0b0"/>
     </g>
     <g id="line2d_2">
      <defs>
       <path id="mf7879bdb06" d="M 0 0 
L 0 3.5 
" style="stroke: #000000; stroke-width: 0.8"/>
      </defs>
      <g>
       <use xlink:href="#mf7879bdb06" x="31.392" y="160.5945" style="stroke: #000000; stroke-width: 0.8"/>
      </g>
     </g>
    </g>
    <g id="xtick_2">
     <g id="line2d_3">
      <path d="M 55.584 281.5545 
L 55.584 15.4425 
" clip-path="url(#p01aee1bc17)" style="fill: none; stroke-dasharray: 3.7,1.6; stroke-dashoffset: 0; stroke: #b0b0b0"/>
     </g>
     <g id="line2d_4">
      <g>
       <use xlink:href="#mf7879bdb06" x="55.584" y="160.5945" style="stroke: #000000; stroke-width: 0.8"/>
      </g>
     </g>
    </g>
    <g id="xtick_3">
     <g id="line2d_5">
      <path d="M 79.776 281.5545 
L 79.776 15.4425 
" clip-path="url(#p01aee1bc17)" style="fill: none; stroke-dasharray: 3.7,1.6; stroke-dashoffset: 0; stroke: #b0b0b0"/>
     </g>
     <g id="line2d_6">
      <g>
       <use xlink:href="#mf7879bdb06" x="79.776" y="160.5945" style="stroke: #000000; stroke-width: 0.8"/>
      </g>
     </g>
    </g>
    <g id="xtick_4">
     <g id="line2d_7">
      <path d="M 103.968 281.5545 
L 103.968 15.4425 
" clip-path="url(#p01aee1bc17)" style="fill: none; stroke-dasharray: 3.7,1.6; stroke-dashoffset: 0; stroke: #b0b0b0"/>
     </g>
     <g id="line2d_8">
      <g>
       <use xlink:href="#mf7879bdb06" x="103.968" y="160.5945" style="stroke: #000000; stroke-width: 0.8"/>
      </g>
     </g>
    </g>
    <g id="xtick_5">
     <g id="line2d_9">
      <path d="M 128.16 281.5545 
L 128.16 15.4425 
" clip-path="url(#p01aee1bc17)" style="fill: none; stroke-dasharray: 3.7,1.6; stroke-dashoffset: 0; stroke: #b0b0b0"/>
     </g>
     <g id="line2d_10">
      <g>
       <use xlink:href="#mf7879bdb06" x="128.16" y="160.5945" style="stroke: #000000; stroke-width: 0.8"/>
      </g>
     </g>
     <g id="text_1">
      <text style="font: 10px 'DejaVu Sans', 'Bitstream Vera Sans', 'Computer Modern Sans Serif', 'Lucida Grande', 'Verdana', 'Geneva', 'Lucid', 'Arial', 'Helvetica', 'Avant Garde', sans-serif; text-anchor: middle; fill: #000000" x="128.16" y="175.192937" transform="rotate(-0 128.16 175.192937)">1</text>
     </g>
    </g>
    <g id="xtick_6">
     <g id="line2d_11">
      <path d="M 152.352 281.5545 
L 152.352 15.4425 
" clip-path="url(#p01aee1bc17)" style="fill: none; stroke-dasharray: 3.7,1.6; stroke-dashoffset: 0; stroke: #b0b0b0"/>
     </g>
     <g id="line2d_12">
      <g>
       <use xlink:href="#mf7879bdb06" x="152.352" y="160.5945" style="stroke: #000000; stroke-width: 0.8"/>
      </g>
     </g>
    </g>
    <g id="text_2">
     <text style="font: 16px 'DejaVu Sans', 'Bitstream Vera Sans', 'Computer Modern Sans Serif', 'Lucida Grande', 'Verdana', 'Geneva', 'Lucid', 'Arial', 'Helvetica', 'Avant Garde', sans-serif; text-anchor: end" x="176.544" y="178.430125" transform="rotate(-0 176.544 178.430125)">x</text>
    </g>
   </g>
   <g id="matplotlib.axis_2">
    <g id="ytick_1">
     <g id="line2d_13">
      <path d="M 7.2 257.3625 
L 176.544 257.3625 
" clip-path="url(#p01aee1bc17)" style="fill: none; stroke-dasharray: 3.7,1.6; stroke-dashoffset: 0; stroke: #b0b0b0"/>
     </g>
     <g id="line2d_14">
      <defs>
       <path id="m248b316fb7" d="M 0 0 
L -3.5 0 
" style="stroke: #000000; stroke-width: 0.8"/>
      </defs>
      <g>
       <use xlink:href="#m248b316fb7" x="103.968" y="257.3625" style="stroke: #000000; stroke-width: 0.8"/>
      </g>
     </g>
    </g>
    <g id="ytick_2">
     <g id="line2d_15">
      <path d="M 7.2 233.1705 
L 176.544 233.1705 
" clip-path="url(#p01aee1bc17)" style="fill: none; stroke-dasharray: 3.7,1.6; stroke-dashoffset: 0; stroke: #b0b0b0"/>
     </g>
     <g id="line2d_16">
      <g>
       <use xlink:href="#m248b316fb7" x="103.968" y="233.1705" style="stroke: #000000; stroke-width: 0.8"/>
      </g>
     </g>
    </g>
    <g id="ytick_3">
     <g id="line2d_17">
      <path d="M 7.2 208.9785 
L 176.544 208.9785 
" clip-path="url(#p01aee1bc17)" style="fill: none; stroke-dasharray: 3.7,1.6; stroke-dashoffset: 0; stroke: #b0b0b0"/>
     </g>
     <g id="line2d_18">
      <g>
       <use xlink:href="#m248b316fb7" x="103.968" y="208.9785" style="stroke: #000000; stroke-width: 0.8"/>
      </g>
     </g>
    </g>
    <g id="ytick_4">
     <g id="line2d_19">
      <path d="M 7.2 184.7865 
L 176.544 184.7865 
" clip-path="url(#p01aee1bc17)" style="fill: none; stroke-dasharray: 3.7,1.6; stroke-dashoffset: 0; stroke: #b0b0b0"/>
     </g>
     <g id="line2d_20">
      <g>
       <use xlink:href="#m248b316fb7" x="103.968" y="184.7865" style="stroke: #000000; stroke-width: 0.8"/>
      </g>
     </g>
    </g>
    <g id="ytick_5">
     <g id="line2d_21">
      <path d="M 7.2 160.5945 
L 176.544 160.5945 
" clip-path="url(#p01aee1bc17)" style="fill: none; stroke-dasharray: 3.7,1.6; stroke-dashoffset: 0; stroke: #b0b0b0"/>
     </g>
     <g id="line2d_22">
      <g>
       <use xlink:href="#m248b316fb7" x="103.968" y="160.5945" style="stroke: #000000; stroke-width: 0.8"/>
      </g>
     </g>
    </g>
    <g id="ytick_6">
     <g id="line2d_23">
      <path d="M 7.2 136.4025 
L 176.544 136.4025 
" clip-path="url(#p01aee1bc17)" style="fill: none; stroke-dasharray: 3.7,1.6; stroke-dashoffset: 0; stroke: #b0b0b0"/>
     </g>
     <g id="line2d_24">
      <g>
       <use xlink:href="#m248b316fb7" x="103.968" y="136.4025" style="stroke: #000000; stroke-width: 0.8"/>
      </g>
     </g>
     <g id="text_3">
      <text style="font: 10px 'DejaVu Sans', 'Bitstream Vera Sans', 'Computer Modern Sans Serif', 'Lucida Grande', 'Verdana', 'Geneva', 'Lucid', 'Arial', 'Helvetica', 'Avant Garde', sans-serif; text-anchor: end" x="96.968" y="140.201719" transform="rotate(-0 96.968 140.201719)">1</text>
     </g>
    </g>
    <g id="ytick_7">
     <g id="line2d_25">
      <path d="M 7.2 112.2105 
L 176.544 112.2105 
" clip-path="url(#p01aee1bc17)" style="fill: none; stroke-dasharray: 3.7,1.6; stroke-dashoffset: 0; stroke: #b0b0b0"/>
     </g>
     <g id="line2d_26">
      <g>
       <use xlink:href="#m248b316fb7" x="103.968" y="112.2105" style="stroke: #000000; stroke-width: 0.8"/>
      </g>
     </g>
    </g>
    <g id="ytick_8">
     <g id="line2d_27">
      <path d="M 7.2 88.0185 
L 176.544 88.0185 
" clip-path="url(#p01aee1bc17)" style="fill: none; stroke-dasharray: 3.7,1.6; stroke-dashoffset: 0; stroke: #b0b0b0"/>
     </g>
     <g id="line2d_28">
      <g>
       <use xlink:href="#m248b316fb7" x="103.968" y="88.0185" style="stroke: #000000; stroke-width: 0.8"/>
      </g>
     </g>
    </g>
    <g id="ytick_9">
     <g id="line2d_29">
      <path d="M 7.2 63.8265 
L 176.544 63.8265 
" clip-path="url(#p01aee1bc17)" style="fill: none; stroke-dasharray: 3.7,1.6; stroke-dashoffset: 0; stroke: #b0b0b0"/>
     </g>
     <g id="line2d_30">
      <g>
       <use xlink:href="#m248b316fb7" x="103.968" y="63.8265" style="stroke: #000000; stroke-width: 0.8"/>
      </g>
     </g>
    </g>
    <g id="ytick_10">
     <g id="line2d_31">
      <path d="M 7.2 39.6345 
L 176.544 39.6345 
" clip-path="url(#p01aee1bc17)" style="fill: none; stroke-dasharray: 3.7,1.6; stroke-dashoffset: 0; stroke: #b0b0b0"/>
     </g>
     <g id="line2d_32">
      <g>
       <use xlink:href="#m248b316fb7" x="103.968" y="39.6345" style="stroke: #000000; stroke-width: 0.8"/>
      </g>
     </g>
    </g>
    <g id="text_4">
     <text style="font: 16px 'DejaVu Sans', 'Bitstream Vera Sans', 'Computer Modern Sans Serif', 'Lucida Grande', 'Verdana', 'Geneva', 'Lucid', 'Arial', 'Helvetica', 'Avant Garde', sans-serif; text-anchor: end" x="98.6055" y="12.115" transform="rotate(-0 98.6055 12.115)">y</text>
    </g>
   </g>
   <g id="line2d_33">
    <defs>
     <path id="m22053cf8d0" d="M 3 0 
L -3 -3 
L -3 3 
z
" style="stroke: #000000; stroke-linejoin: miter"/>
    </defs>
    <g>
     <use xlink:href="#m22053cf8d0" x="176.544" y="160.5945" style="stroke: #000000; stroke-linejoin: miter"/>
    </g>
   </g>
   <g id="line2d_34">
    <defs>
     <path id="m916cf60904" d="M 0 -3 
L -3 3 
L 3 3 
z
" style="stroke: #000000; stroke-linejoin: miter"/>
    </defs>
    <g>
     <use xlink:href="#m916cf60904" x="103.968" y="15.4425" style="stroke: #000000; stroke-linejoin: miter"/>
    </g>
   </g>
   <g id="line2d_35">
    <path d="M 7.2 160.5945 
L 176.544 160.5945 
" clip-path="url(#p01aee1bc17)" style="fill: none; stroke: #000000; stroke-linecap: square"/>
   </g>
   <g id="line2d_36">
    <path d="M 103.968 281.5545 
L 103.968 15.4425 
" clip-path="url(#p01aee1bc17)" style="fill: none; stroke: #000000; stroke-linecap: square"/>
   </g>
   <g id="line2d_37">
    <path d="M 31.392 136.4025 
" clip-path="url(#p01aee1bc17)" style="fill: none; stroke: #1f77b4; stroke-width: 1.5; stroke-linecap: square"/>
    <defs>
     <path id="ma1c768f276" d="M 0 4 
C 1.060812 4 2.078319 3.578535 2.828427 2.828427 
C 3.578535 2.078319 4 1.060812 4 0 
C 4 -1.060812 3.578535 -2.078319 2.828427 -2.828427 
C 2.078319 -3.578535 1.060812 -4 0 -4 
C -1.060812 -4 -2.078319 -3.578535 -2.828427 -2.828427 
C -3.578535 -2.078319 -4 -1.060812 -4 0 
C -4 1.060812 -3.578535 2.078319 -2.828427 2.828427 
C -2.078319 3.578535 -1.060812 4 0 4 
z
" style="stroke: #00129c"/>
    </defs>
    <g clip-path="url(#p01aee1bc17)">
     <use xlink:href="#ma1c768f276" x="31.392" y="136.4025" style="fill: #00129c; stroke: #00129c"/>
    </g>
   </g>
   <g id="line2d_38">
    <path d="M 152.352 257.3625 
" clip-path="url(#p01aee1bc17)" style="fill: none; stroke: #ff7f0e; stroke-width: 1.5; stroke-linecap: square"/>
    <g clip-path="url(#p01aee1bc17)">
     <use xlink:href="#ma1c768f276" x="152.352" y="257.3625" style="fill: #00129c; stroke: #00129c"/>
    </g>
   </g>
   <g id="line2d_39">
    <path d="M 31.392 136.4025 
L 32.613818 131.576935 
L 33.835636 126.874787 
L 35.057455 122.296054 
L 36.279273 117.840737 
L 37.501091 113.508836 
L 38.722909 109.300351 
L 39.944727 105.215282 
L 41.166545 101.253629 
L 42.388364 97.415393 
L 43.610182 93.700572 
L 44.832 90.109167 
L 46.053818 86.641178 
L 47.275636 83.296605 
L 48.497455 80.075448 
L 49.719273 76.977707 
L 50.941091 74.003382 
L 52.162909 71.152472 
L 53.384727 68.424979 
L 54.606545 65.820902 
L 55.828364 63.340241 
L 57.050182 60.982996 
L 58.272 58.749167 
L 59.493818 56.638753 
L 60.715636 54.651756 
L 61.937455 52.788175 
L 63.159273 51.04801 
L 64.381091 49.43126 
L 65.602909 47.937927 
L 66.824727 46.56801 
L 68.046545 45.321508 
L 69.268364 44.198423 
L 70.490182 43.198753 
L 71.712 42.3225 
L 72.933818 41.569663 
L 74.155636 40.940241 
L 75.377455 40.434236 
L 76.599273 40.051646 
L 77.821091 39.792472 
L 79.042909 39.656715 
L 80.264727 39.644373 
L 81.486545 39.755448 
L 82.708364 39.989938 
L 83.930182 40.347844 
L 85.152 40.829167 
L 86.373818 41.433905 
L 87.595636 42.162059 
L 88.817455 43.013629 
L 90.039273 43.988616 
L 91.261091 45.087018 
L 92.482909 46.308836 
L 93.704727 47.65407 
L 94.926545 49.12272 
L 96.148364 50.714787 
L 97.370182 52.430269 
L 98.592 54.269167 
L 99.813818 56.231481 
L 101.035636 58.317211 
L 102.257455 60.526357 
L 103.479273 62.858919 
L 104.701091 65.314897 
L 105.922909 67.894291 
L 107.144727 70.597101 
L 108.366545 73.423326 
L 109.588364 76.372968 
L 110.810182 79.446026 
L 112.032 82.6425 
L 113.253818 85.96239 
L 114.475636 89.405696 
L 115.697455 92.972417 
L 116.919273 96.662555 
L 118.141091 100.476109 
L 119.362909 104.413079 
L 120.584727 108.473464 
L 121.806545 112.657266 
L 123.028364 116.964483 
L 124.250182 121.395117 
L 125.472 125.949167 
L 126.693818 130.626632 
L 127.915636 135.427514 
L 129.137455 140.351811 
L 130.359273 145.399525 
L 131.581091 150.570654 
L 132.802909 155.8652 
L 134.024727 161.283161 
L 135.246545 166.824539 
L 136.468364 172.489332 
L 137.690182 178.277541 
L 138.912 184.189167 
L 140.133818 190.224208 
L 141.355636 196.382665 
L 142.577455 202.664539 
L 143.799273 209.069828 
L 145.021091 215.598533 
L 146.242909 222.250654 
L 147.464727 229.026191 
L 148.686545 235.925145 
L 149.908364 242.947514 
L 151.130182 250.093299 
L 152.352 257.3625 
" clip-path="url(#p01aee1bc17)" style="fill: none; stroke: #00129c; stroke-width: 1.5; stroke-linecap: square"/>
   </g>
   <g id="patch_3">
    <path d="M 103.968 281.5545 
L 103.968 15.4425 
" style="fill: none"/>
   </g>
   <g id="patch_4">
    <path d="M 176.544 281.5545 
L 176.544 15.4425 
" style="fill: none"/>
   </g>
   <g id="patch_5">
    <path d="M 7.2 160.5945 
L 176.544 160.5945 
" style="fill: none"/>
   </g>
   <g id="patch_6">
    <path d="M 7.2 15.4425 
L 176.544 15.4425 
" style="fill: none"/>
   </g>
  </g>
 </g>
 <defs>
  <clipPath id="p01aee1bc17">
   <rect x="7.2" y="15.4425" width="169.344" height="266.112"/>
  </clipPath>
 </defs>
</svg>
